<?xml version="1.0" standalone="no"?>
<!DOCTYPE svg PUBLIC "-//W3C//DTD SVG 20010904//EN"
 "http://www.w3.org/TR/2001/REC-SVG-20010904/DTD/svg10.dtd">
<svg version="1.0" xmlns="http://www.w3.org/2000/svg"
 width="1318.000000pt" height="1318.000000pt" viewBox="0 0 1318.000000 1318.000000"
 preserveAspectRatio="xMidYMid meet">
<metadata>
Created by potrace 1.11, written by Peter Selinger 2001-2013
</metadata>
<g transform="translate(0.000000,1318.000000) scale(0.100000,-0.100000)"
fill="#000000" stroke="none">
<path d="M833 13165 c-105 -46 -120 -191 -26 -255 l37 -25 2139 -1 2139 -1 42
22 c46 24 75 71 76 123 0 46 -34 108 -73 129 -30 17 -144 18 -2169 19 -1654 1
-2143 -2 -2165 -11z"/>
<path d="M8016 13158 c-103 -53 -102 -204 1 -256 37 -19 91 -19 2180 -18
l2141 1 38 30 c84 68 73 194 -21 248 -15 9 -558 12 -2161 13 -2079 1 -2142 0
-2178 -18z"/>
<path d="M873 12628 c-87 -24 -141 -145 -106 -235 7 -19 63 -83 95 -108 24
-19 283 -239 288 -245 3 -3 102 -89 220 -190 118 -101 221 -192 227 -201 12
-16 104 -17 1405 -17 l1392 0 86 76 c47 41 99 87 115 101 109 94 181 157 185
161 3 3 34 30 70 60 36 30 69 60 75 66 5 6 76 68 157 137 112 98 149 136 158
163 29 87 -1 174 -74 215 l-41 24 -2112 0 c-1162 0 -2125 -3 -2140 -7z"/>
<path d="M8047 12618 c-49 -22 -73 -51 -91 -110 -15 -47 -11 -92 13 -136 6
-12 109 -106 229 -208 119 -103 233 -200 253 -218 20 -17 62 -53 95 -81 150
-128 230 -199 241 -215 12 -17 92 -18 1408 -18 l1395 0 33 32 c17 17 61 56 96
86 35 30 72 62 81 70 9 8 45 40 81 70 35 30 69 59 75 65 6 5 40 35 74 65 35
30 73 63 84 73 12 10 83 73 159 139 76 66 144 133 153 150 42 81 12 185 -69
233 -31 19 -82 20 -2151 20 -1994 0 -2122 -1 -2159 -17z"/>
<path d="M1640 11302 c-7 -3 -10 -1582 -10 -4711 l0 -4708 1375 0 c1256 0
1375 1 1376 16 4 102 0 9393 -5 9398 -6 6 -2717 11 -2736 5z m2368 -443 c33
-16 49 -32 63 -63 18 -40 19 -163 19 -4201 l0 -4160 -23 -39 c-12 -21 -38 -48
-57 -58 -68 -37 -166 -3 -196 68 -12 28 -14 669 -14 4194 0 4100 0 4161 19
4199 27 52 62 73 130 80 8 0 35 -9 59 -20z m-1006 -38 c48 -20 93 -67 115
-118 18 -44 20 -8200 1 -8254 -30 -91 -104 -142 -207 -144 -105 -2 -181 41
-218 124 -15 33 -16 403 -18 4126 -1 3370 1 4098 12 4135 17 57 46 92 103 124
57 32 146 35 212 7z"/>
<path d="M8807 11298 c-9 -5 -12 -479 -11 -2000 l1 -1995 -1811 0 c-996 0
-1829 -3 -1850 -7 -47 -9 -98 -58 -117 -113 -10 -30 -13 -161 -13 -599 l-1
-561 24 -47 c14 -27 39 -56 60 -69 l36 -22 1810 -2 c996 -1 1822 -2 1836 -2
l26 -1 1 -1982 c0 -1091 1 -1990 1 -1999 1 -15 121 -16 1396 -16 l1395 0 0
4708 c0 2590 -3 4709 -7 4710 -44 5 -2767 2 -2776 -3z m2420 -448 c18 -10 41
-36 51 -57 19 -37 19 -122 20 -4183 0 -2280 -3 -4161 -8 -4181 -15 -75 -91
-126 -162 -109 -57 13 -68 21 -95 67 l-26 44 0 4163 c0 3727 2 4165 16 4191
16 32 53 69 77 78 34 12 96 6 127 -13z m-984 -46 c27 -19 52 -49 69 -83 l28
-55 -3 -4105 -2 -4106 -24 -42 c-44 -77 -118 -113 -223 -108 -62 3 -105 22
-147 67 -62 67 -58 -258 -57 4208 l1 4095 24 48 c41 85 107 118 219 113 61 -3
80 -8 115 -32z"/>
<path d="M1656 1552 c-45 -3 -56 -9 -135 -79 -78 -69 -161 -142 -217 -190
-396 -344 -524 -459 -533 -482 -39 -93 1 -201 86 -237 27 -12 378 -14 2147
-14 1470 0 2123 3 2143 11 91 34 135 161 84 243 -11 18 -65 71 -118 117 -54
46 -105 91 -113 99 -8 8 -49 44 -90 80 -41 36 -77 67 -80 70 -3 3 -41 37 -85
75 -103 90 -130 114 -248 219 l-97 88 -1348 1 c-741 1 -1369 1 -1396 -1z"/>
<path d="M8818 1552 c-15 -2 -33 -11 -40 -20 -7 -9 -60 -57 -118 -107 -58 -49
-122 -106 -144 -125 -21 -19 -44 -39 -50 -45 -6 -5 -43 -37 -81 -69 -39 -33
-74 -64 -80 -70 -5 -6 -37 -34 -70 -61 -33 -28 -62 -53 -65 -56 -3 -3 -43 -38
-89 -78 -101 -87 -118 -107 -129 -157 -17 -81 30 -176 101 -203 20 -8 670 -11
2143 -11 1769 0 2120 2 2147 14 87 37 127 148 84 233 -9 16 -69 77 -134 134
-65 57 -123 108 -129 114 -6 5 -39 35 -74 65 -35 30 -75 66 -90 80 -45 41 -87
78 -253 224 l-159 138 -1371 2 c-755 0 -1384 0 -1399 -2z"/>
<path d="M882 303 c-4 -1 -20 -4 -35 -7 -32 -8 -78 -49 -94 -87 -15 -34 -9
-101 12 -133 9 -14 33 -35 52 -47 l34 -21 2092 0 c1151 1 2115 1 2143 1 158 2
211 195 75 275 -33 19 -65 19 -2152 20 -1166 1 -2122 0 -2127 -1z"/>
<path d="M8053 297 c-104 -20 -150 -158 -80 -235 54 -58 -110 -54 2212 -54
1997 0 2134 1 2168 17 106 50 105 210 -1 261 -35 16 -151 17 -2148 18 -1162 1
-2130 -2 -2151 -7z"/>
</g>
</svg>
