<?xml version="1.0" encoding="utf-8"?>
<!-- Generator: Adobe Illustrator 19.1.0, SVG Export Plug-In . SVG Version: 6.00 Build 0)  -->
<svg version="1.1" id="Layer_1" xmlns="http://www.w3.org/2000/svg" xmlns:xlink="http://www.w3.org/1999/xlink" x="0px" y="0px"
	 viewBox="0 0 372.2 369" style="enable-background:new 0 0 372.2 369;" xml:space="preserve">
<style type="text/css">
	.st0{fill:#939598;}
	.st1{fill:none;stroke:#000000;stroke-miterlimit:10;}
	.st2{fill:#FFFFFF;}
	.st3{fill:#FFFFFF;stroke:#000000;stroke-linecap:square;stroke-miterlimit:10;}
	.st4{fill:#FFFFFF;stroke:#000000;stroke-width:4;stroke-miterlimit:10;}
	.st5{fill:#F8F8F8;}
	.st6{fill:#171F42;}
	.st7{fill:#090909;}
</style>
<g>
	<g>
		<path class="st6" d="M306.6,63.3l18.5-16.1c2.8-2.4,1.1-7.2-2.6-7.2h-99.9c-3.7,0-5.5,4.9-2.6,7.3l18.5,15.9
			c0.2,0.2,0.3,0.8,0.5,0.8h67.1C306.2,64,306.4,63.5,306.6,63.3z"/>
		<path class="st6" d="M149.9,40H50c-3.7,0-5.5,4.9-2.6,7.3l18.5,15.9c0.2,0.2,0.3,0.8,0.5,0.8h67.1c0.2,0,0.3-0.5,0.5-0.6
			l18.5-16.1C155.3,44.8,153.6,40,149.9,40z"/>
		<path class="st6" d="M134,306.5c-0.2-0.2-0.3-0.6-0.5-0.6H66.4c-0.2,0-0.3,0.4-0.5,0.6l-18.5,16.1c-2.8,2.4-1.1,7.3,2.6,7.3h99.9
			c3.7,0,5.5-4.7,2.6-7.1L134,306.5z"/>
		<path class="st6" d="M306.6,306.5c-0.2-0.2-0.3-0.6-0.5-0.6H239c-0.2,0-0.3,0.4-0.5,0.6L220,322.7c-2.8,2.4-1.1,7.3,2.6,7.3h99.9
			c3.7,0,5.5-4.7,2.6-7.1L306.6,306.5z"/>
		<path class="st6" d="M306,298V72h-67v96h-87c-2.5,0-4,2.2-4,4.7v24.8c0,2.5,1.6,4.6,4,4.6h87v96H306z M292,85.9
			c0-2,1.5-3.7,3.5-3.7c2,0,3.5,1.7,3.5,3.7V284c0,2-1.5,3.7-3.5,3.7c-2,0-3.5-1.7-3.5-3.7V85.9z M276,282.9c0,2.8-2.3,5.1-5.1,5.1
			h-0.7c-2.8,0-5.1-2.3-5.1-5.1V88.1c0-2.8,2.3-5.1,5.1-5.1h0.7c2.8,0,5.1,2.3,5.1,5.1V282.9z"/>
		<path class="st6" d="M133,298V72H67v226H133z M119,85.8c0-2,1.5-3.7,3.5-3.7c2,0,3.5,1.7,3.5,3.7v198.1c0,2-1.5,3.7-3.5,3.7
			c-2,0-3.5-1.7-3.5-3.7V85.8z M103,282.9c0,2.8-2.3,5.1-5.1,5.1h-0.7c-2.8,0-5.1-2.3-5.1-5.1V88.1c0-2.8,2.3-5.1,5.1-5.1h0.7
			c2.8,0,5.1,2.3,5.1,5.1V282.9z"/>
		<path class="st6" d="M49.2,34h100.9c1.9,0,3.5-1.6,3.5-3.5c0-1.9-1.6-3.5-3.5-3.5H49.2c-1.9,0-3.5,1.6-3.5,3.5
			C45.7,32.4,47.3,34,49.2,34z"/>
		<path class="st6" d="M221.9,34h100.9c1.9,0,3.5-1.6,3.5-3.5c0-1.9-1.6-3.5-3.5-3.5H221.9c-1.9,0-3.5,1.6-3.5,3.5
			C218.4,32.4,219.9,34,221.9,34z"/>
		<path class="st6" d="M150.1,336H49.2c-1.9,0-3.5,1.6-3.5,3.5c0,1.9,1.6,3.5,3.5,3.5h100.9c1.9,0,3.5-1.6,3.5-3.5
			C153.6,337.5,152,336,150.1,336z"/>
		<path class="st6" d="M322.7,336H221.9c-1.9,0-3.5,1.6-3.5,3.5c0,1.9,1.6,3.5,3.5,3.5h100.9c1.9,0,3.5-1.6,3.5-3.5
			C326.2,337.5,324.7,336,322.7,336z"/>
	</g>
</g>
</svg>
