<?xml version="1.0" encoding="UTF-8" standalone="no"?>
<!-- Generator: Adobe Illustrator 19.1.0, SVG Export Plug-In . SVG Version: 6.00 Build 0)  -->

<svg
   xmlns:dc="http://purl.org/dc/elements/1.1/"
   xmlns:cc="http://creativecommons.org/ns#"
   xmlns:rdf="http://www.w3.org/1999/02/22-rdf-syntax-ns#"
   xmlns:svg="http://www.w3.org/2000/svg"
   xmlns="http://www.w3.org/2000/svg"
   xmlns:sodipodi="http://sodipodi.sourceforge.net/DTD/sodipodi-0.dtd"
   xmlns:inkscape="http://www.inkscape.org/namespaces/inkscape"
   version="1.1"
   id="Layer_1"
   x="0px"
   y="0px"
   viewBox="0 0 203 231"
   xml:space="preserve"
   sodipodi:docname="logo.svg"
   width="145"
   height="165"
   inkscape:version="0.92.1 r"><metadata
     id="metadata33"><rdf:RDF><cc:Work
         rdf:about=""><dc:format>image/svg+xml</dc:format><dc:type
           rdf:resource="http://purl.org/dc/dcmitype/StillImage" /><dc:title></dc:title></cc:Work></rdf:RDF></metadata><defs
     id="defs31" /><sodipodi:namedview
     pagecolor="#ffffff"
     bordercolor="#666666"
     borderopacity="1"
     objecttolerance="10"
     gridtolerance="10"
     guidetolerance="10"
     inkscape:pageopacity="0"
     inkscape:pageshadow="2"
     inkscape:window-width="1920"
     inkscape:window-height="1023"
     id="namedview29"
     showgrid="false"
     scale-x="1.4"
     fit-margin-top="0"
     fit-margin-left="0"
     fit-margin-right="0"
     fit-margin-bottom="0"
     inkscape:zoom="0.6395664"
     inkscape:cx="153.45715"
     inkscape:cy="-2.042369"
     inkscape:window-x="0"
     inkscape:window-y="0"
     inkscape:window-maximized="1"
     inkscape:current-layer="Layer_1" /><style
     type="text/css"
     id="style2">
	.st0{fill:#939598;}
	.st1{fill:none;stroke:#000000;stroke-miterlimit:10;}
	.st2{fill:#FFFFFF;}
	.st3{fill:#FFFFFF;stroke:#000000;stroke-linecap:square;stroke-miterlimit:10;}
	.st4{fill:#FFFFFF;stroke:#000000;stroke-width:4;stroke-miterlimit:10;}
	.st5{fill:#F8F8F8;}
	.st6{fill:#171F42;}
	.st7{fill:#090909;}
</style><g
     id="g26"
     transform="matrix(0.72283603,0,0,0.73101266,-33.033607,-19.737342)"><g
       id="g24"><path
         class="st6"
         d="m 306.6,63.3 18.5,-16.1 c 2.8,-2.4 1.1,-7.2 -2.6,-7.2 h -99.9 c -3.7,0 -5.5,4.9 -2.6,7.3 l 18.5,15.9 c 0.2,0.2 0.3,0.8 0.5,0.8 h 67.1 c 0.1,0 0.3,-0.5 0.5,-0.7 z"
         id="path4"
         inkscape:connector-curvature="0"
         style="fill:#171f42" /><path
         class="st6"
         d="M 149.9,40 H 50 c -3.7,0 -5.5,4.9 -2.6,7.3 l 18.5,15.9 c 0.2,0.2 0.3,0.8 0.5,0.8 h 67.1 c 0.2,0 0.3,-0.5 0.5,-0.6 l 18.5,-16.1 c 2.8,-2.5 1.1,-7.3 -2.6,-7.3 z"
         id="path6"
         inkscape:connector-curvature="0"
         style="fill:#171f42" /><path
         class="st6"
         d="m 134,306.5 c -0.2,-0.2 -0.3,-0.6 -0.5,-0.6 H 66.4 c -0.2,0 -0.3,0.4 -0.5,0.6 l -18.5,16.1 c -2.8,2.4 -1.1,7.3 2.6,7.3 h 99.9 c 3.7,0 5.5,-4.7 2.6,-7.1 z"
         id="path8"
         inkscape:connector-curvature="0"
         style="fill:#171f42" /><path
         class="st6"
         d="m 306.6,306.5 c -0.2,-0.2 -0.3,-0.6 -0.5,-0.6 H 239 c -0.2,0 -0.3,0.4 -0.5,0.6 L 220,322.7 c -2.8,2.4 -1.1,7.3 2.6,7.3 h 99.9 c 3.7,0 5.5,-4.7 2.6,-7.1 z"
         id="path10"
         inkscape:connector-curvature="0"
         style="fill:#171f42" /><path
         class="st6"
         d="M 306,298 V 72 h -67 v 96 h -87 c -2.5,0 -4,2.2 -4,4.7 v 24.8 c 0,2.5 1.6,4.6 4,4.6 h 87 v 96 h 67 z M 292,85.9 c 0,-2 1.5,-3.7 3.5,-3.7 2,0 3.5,1.7 3.5,3.7 V 284 c 0,2 -1.5,3.7 -3.5,3.7 -2,0 -3.5,-1.7 -3.5,-3.7 z m -16,197 c 0,2.8 -2.3,5.1 -5.1,5.1 h -0.7 c -2.8,0 -5.1,-2.3 -5.1,-5.1 V 88.1 c 0,-2.8 2.3,-5.1 5.1,-5.1 h 0.7 c 2.8,0 5.1,2.3 5.1,5.1 z"
         id="path12"
         inkscape:connector-curvature="0"
         style="fill:#171f42" /><path
         class="st6"
         d="M 133,298 V 72 H 67 V 298 Z M 119,85.8 c 0,-2 1.5,-3.7 3.5,-3.7 2,0 3.5,1.7 3.5,3.7 v 198.1 c 0,2 -1.5,3.7 -3.5,3.7 -2,0 -3.5,-1.7 -3.5,-3.7 z m -16,197.1 c 0,2.8 -2.3,5.1 -5.1,5.1 h -0.7 c -2.8,0 -5.1,-2.3 -5.1,-5.1 V 88.1 c 0,-2.8 2.3,-5.1 5.1,-5.1 h 0.7 c 2.8,0 5.1,2.3 5.1,5.1 z"
         id="path14"
         inkscape:connector-curvature="0"
         style="fill:#171f42" /><path
         class="st6"
         d="m 49.2,34 h 100.9 c 1.9,0 3.5,-1.6 3.5,-3.5 0,-1.9 -1.6,-3.5 -3.5,-3.5 H 49.2 c -1.9,0 -3.5,1.6 -3.5,3.5 0,1.9 1.6,3.5 3.5,3.5 z"
         id="path16"
         inkscape:connector-curvature="0"
         style="fill:#171f42" /><path
         class="st6"
         d="m 221.9,34 h 100.9 c 1.9,0 3.5,-1.6 3.5,-3.5 0,-1.9 -1.6,-3.5 -3.5,-3.5 H 221.9 c -1.9,0 -3.5,1.6 -3.5,3.5 0,1.9 1.5,3.5 3.5,3.5 z"
         id="path18"
         inkscape:connector-curvature="0"
         style="fill:#171f42" /><path
         class="st6"
         d="M 150.1,336 H 49.2 c -1.9,0 -3.5,1.6 -3.5,3.5 0,1.9 1.6,3.5 3.5,3.5 h 100.9 c 1.9,0 3.5,-1.6 3.5,-3.5 0,-2 -1.6,-3.5 -3.5,-3.5 z"
         id="path20"
         inkscape:connector-curvature="0"
         style="fill:#171f42" /><path
         class="st6"
         d="M 322.7,336 H 221.9 c -1.9,0 -3.5,1.6 -3.5,3.5 0,1.9 1.6,3.5 3.5,3.5 h 100.9 c 1.9,0 3.5,-1.6 3.5,-3.5 -0.1,-2 -1.6,-3.5 -3.6,-3.5 z"
         id="path22"
         inkscape:connector-curvature="0"
         style="fill:#171f42" /></g></g></svg>