<?xml version="1.0" encoding="UTF-8" standalone="no"?>
<svg
   xmlns:dc="http://purl.org/dc/elements/1.1/"
   xmlns:cc="http://creativecommons.org/ns#"
   xmlns:rdf="http://www.w3.org/1999/02/22-rdf-syntax-ns#"
   xmlns:svg="http://www.w3.org/2000/svg"
   xmlns="http://www.w3.org/2000/svg"
   version="1.1"
   id="Layer_1"
   x="0px"
   y="0px"
   viewBox="0 0 315 128.50203"
   xml:space="preserve"
   width="315"
   height="128.50203"><metadata
     id="metadata67"><rdf:RDF><cc:Work
         rdf:about=""><dc:format>image/svg+xml</dc:format><dc:type
           rdf:resource="http://purl.org/dc/dcmitype/StillImage" /><dc:title></dc:title></cc:Work></rdf:RDF></metadata><defs
     id="defs65"><filter
       style="color-interpolation-filters:sRGB"
       id="filter4612"><feFlood
         flood-opacity="0.498039"
         flood-color="rgb(0,0,0)"
         result="flood"
         id="feFlood4602" /><feComposite
         in="flood"
         in2="SourceGraphic"
         operator="in"
         result="composite1"
         id="feComposite4604" /><feGaussianBlur
         in="composite1"
         stdDeviation="3"
         result="blur"
         id="feGaussianBlur4606" /><feOffset
         dx="6"
         dy="6"
         result="offset"
         id="feOffset4608" /><feComposite
         in="SourceGraphic"
         in2="offset"
         operator="over"
         result="composite2"
         id="feComposite4610" /></filter><filter
       style="color-interpolation-filters:sRGB"
       id="filter4624"><feFlood
         flood-opacity="0.498039"
         flood-color="rgb(0,0,0)"
         result="flood"
         id="feFlood4614" /><feComposite
         in="flood"
         in2="SourceGraphic"
         operator="in"
         result="composite1"
         id="feComposite4616" /><feGaussianBlur
         in="composite1"
         stdDeviation="3"
         result="blur"
         id="feGaussianBlur4618" /><feOffset
         dx="6"
         dy="6"
         result="offset"
         id="feOffset4620" /><feComposite
         in="SourceGraphic"
         in2="offset"
         operator="over"
         result="composite2"
         id="feComposite4622" /></filter><filter
       style="color-interpolation-filters:sRGB"
       id="filter4636"><feFlood
         flood-opacity="0.498039"
         flood-color="rgb(0,0,0)"
         result="flood"
         id="feFlood4626" /><feComposite
         in="flood"
         in2="SourceGraphic"
         operator="in"
         result="composite1"
         id="feComposite4628" /><feGaussianBlur
         in="composite1"
         stdDeviation="3"
         result="blur"
         id="feGaussianBlur4630" /><feOffset
         dx="6"
         dy="6"
         result="offset"
         id="feOffset4632" /><feComposite
         in="SourceGraphic"
         in2="offset"
         operator="over"
         result="composite2"
         id="feComposite4634" /></filter><filter
       style="color-interpolation-filters:sRGB"
       id="filter4648"><feFlood
         flood-opacity="0.498039"
         flood-color="rgb(0,0,0)"
         result="flood"
         id="feFlood4638" /><feComposite
         in="flood"
         in2="SourceGraphic"
         operator="in"
         result="composite1"
         id="feComposite4640" /><feGaussianBlur
         in="composite1"
         stdDeviation="3"
         result="blur"
         id="feGaussianBlur4642" /><feOffset
         dx="6"
         dy="6"
         result="offset"
         id="feOffset4644" /><feComposite
         in="SourceGraphic"
         in2="offset"
         operator="over"
         result="composite2"
         id="feComposite4646" /></filter><filter
       style="color-interpolation-filters:sRGB"
       id="filter4660"><feFlood
         flood-opacity="0.498039"
         flood-color="rgb(0,0,0)"
         result="flood"
         id="feFlood4650" /><feComposite
         in="flood"
         in2="SourceGraphic"
         operator="in"
         result="composite1"
         id="feComposite4652" /><feGaussianBlur
         in="composite1"
         stdDeviation="3"
         result="blur"
         id="feGaussianBlur4654" /><feOffset
         dx="6"
         dy="6"
         result="offset"
         id="feOffset4656" /><feComposite
         in="SourceGraphic"
         in2="offset"
         operator="over"
         result="composite2"
         id="feComposite4658" /></filter><filter
       style="color-interpolation-filters:sRGB"
       id="filter4672"><feFlood
         flood-opacity="0.498039"
         flood-color="rgb(0,0,0)"
         result="flood"
         id="feFlood4662" /><feComposite
         in="flood"
         in2="SourceGraphic"
         operator="in"
         result="composite1"
         id="feComposite4664" /><feGaussianBlur
         in="composite1"
         stdDeviation="3"
         result="blur"
         id="feGaussianBlur4666" /><feOffset
         dx="6"
         dy="6"
         result="offset"
         id="feOffset4668" /><feComposite
         in="SourceGraphic"
         in2="offset"
         operator="over"
         result="composite2"
         id="feComposite4670" /></filter><filter
       style="color-interpolation-filters:sRGB"
       id="filter4684"><feFlood
         flood-opacity="0.498039"
         flood-color="rgb(0,0,0)"
         result="flood"
         id="feFlood4674" /><feComposite
         in="flood"
         in2="SourceGraphic"
         operator="in"
         result="composite1"
         id="feComposite4676" /><feGaussianBlur
         in="composite1"
         stdDeviation="3"
         result="blur"
         id="feGaussianBlur4678" /><feOffset
         dx="6"
         dy="6"
         result="offset"
         id="feOffset4680" /><feComposite
         in="SourceGraphic"
         in2="offset"
         operator="over"
         result="composite2"
         id="feComposite4682" /></filter><filter
       style="color-interpolation-filters:sRGB"
       id="filter4696"><feFlood
         flood-opacity="0.498039"
         flood-color="rgb(0,0,0)"
         result="flood"
         id="feFlood4686" /><feComposite
         in="flood"
         in2="SourceGraphic"
         operator="in"
         result="composite1"
         id="feComposite4688" /><feGaussianBlur
         in="composite1"
         stdDeviation="3"
         result="blur"
         id="feGaussianBlur4690" /><feOffset
         dx="6"
         dy="6"
         result="offset"
         id="feOffset4692" /><feComposite
         in="SourceGraphic"
         in2="offset"
         operator="over"
         result="composite2"
         id="feComposite4694" /></filter><filter
       style="color-interpolation-filters:sRGB"
       id="filter4708"><feFlood
         flood-opacity="0.498039"
         flood-color="rgb(0,0,0)"
         result="flood"
         id="feFlood4698" /><feComposite
         in="flood"
         in2="SourceGraphic"
         operator="in"
         result="composite1"
         id="feComposite4700" /><feGaussianBlur
         in="composite1"
         stdDeviation="3"
         result="blur"
         id="feGaussianBlur4702" /><feOffset
         dx="6"
         dy="6"
         result="offset"
         id="feOffset4704" /><feComposite
         in="SourceGraphic"
         in2="offset"
         operator="over"
         result="composite2"
         id="feComposite4706" /></filter><filter
       style="color-interpolation-filters:sRGB"
       id="filter4720"><feFlood
         flood-opacity="0.498039"
         flood-color="rgb(0,0,0)"
         result="flood"
         id="feFlood4710" /><feComposite
         in="flood"
         in2="SourceGraphic"
         operator="in"
         result="composite1"
         id="feComposite4712" /><feGaussianBlur
         in="composite1"
         stdDeviation="3"
         result="blur"
         id="feGaussianBlur4714" /><feOffset
         dx="6"
         dy="6"
         result="offset"
         id="feOffset4716" /><feComposite
         in="SourceGraphic"
         in2="offset"
         operator="over"
         result="composite2"
         id="feComposite4718" /></filter><filter
       style="color-interpolation-filters:sRGB"
       id="filter4732"><feFlood
         flood-opacity="0.498039"
         flood-color="rgb(0,0,0)"
         result="flood"
         id="feFlood4722" /><feComposite
         in="flood"
         in2="SourceGraphic"
         operator="in"
         result="composite1"
         id="feComposite4724" /><feGaussianBlur
         in="composite1"
         stdDeviation="3"
         result="blur"
         id="feGaussianBlur4726" /><feOffset
         dx="6"
         dy="6"
         result="offset"
         id="feOffset4728" /><feComposite
         in="SourceGraphic"
         in2="offset"
         operator="over"
         result="composite2"
         id="feComposite4730" /></filter><filter
       style="color-interpolation-filters:sRGB"
       id="filter4744"><feFlood
         flood-opacity="0.498039"
         flood-color="rgb(0,0,0)"
         result="flood"
         id="feFlood4734" /><feComposite
         in="flood"
         in2="SourceGraphic"
         operator="in"
         result="composite1"
         id="feComposite4736" /><feGaussianBlur
         in="composite1"
         stdDeviation="3"
         result="blur"
         id="feGaussianBlur4738" /><feOffset
         dx="6"
         dy="6"
         result="offset"
         id="feOffset4740" /><feComposite
         in="SourceGraphic"
         in2="offset"
         operator="over"
         result="composite2"
         id="feComposite4742" /></filter><filter
       style="color-interpolation-filters:sRGB"
       id="filter4756"><feFlood
         flood-opacity="0.498039"
         flood-color="rgb(0,0,0)"
         result="flood"
         id="feFlood4746" /><feComposite
         in="flood"
         in2="SourceGraphic"
         operator="in"
         result="composite1"
         id="feComposite4748" /><feGaussianBlur
         in="composite1"
         stdDeviation="3"
         result="blur"
         id="feGaussianBlur4750" /><feOffset
         dx="6"
         dy="6"
         result="offset"
         id="feOffset4752" /><feComposite
         in="SourceGraphic"
         in2="offset"
         operator="over"
         result="composite2"
         id="feComposite4754" /></filter><filter
       style="color-interpolation-filters:sRGB"
       id="filter4768"><feFlood
         flood-opacity="0.498039"
         flood-color="rgb(0,0,0)"
         result="flood"
         id="feFlood4758" /><feComposite
         in="flood"
         in2="SourceGraphic"
         operator="in"
         result="composite1"
         id="feComposite4760" /><feGaussianBlur
         in="composite1"
         stdDeviation="3"
         result="blur"
         id="feGaussianBlur4762" /><feOffset
         dx="6"
         dy="6"
         result="offset"
         id="feOffset4764" /><feComposite
         in="SourceGraphic"
         in2="offset"
         operator="over"
         result="composite2"
         id="feComposite4766" /></filter><filter
       style="color-interpolation-filters:sRGB"
       id="filter4780"><feFlood
         flood-opacity="0.498039"
         flood-color="rgb(0,0,0)"
         result="flood"
         id="feFlood4770" /><feComposite
         in="flood"
         in2="SourceGraphic"
         operator="in"
         result="composite1"
         id="feComposite4772" /><feGaussianBlur
         in="composite1"
         stdDeviation="3"
         result="blur"
         id="feGaussianBlur4774" /><feOffset
         dx="6"
         dy="6"
         result="offset"
         id="feOffset4776" /><feComposite
         in="SourceGraphic"
         in2="offset"
         operator="over"
         result="composite2"
         id="feComposite4778" /></filter><filter
       style="color-interpolation-filters:sRGB"
       id="filter4792"><feFlood
         flood-opacity="0.498039"
         flood-color="rgb(0,0,0)"
         result="flood"
         id="feFlood4782" /><feComposite
         in="flood"
         in2="SourceGraphic"
         operator="in"
         result="composite1"
         id="feComposite4784" /><feGaussianBlur
         in="composite1"
         stdDeviation="3"
         result="blur"
         id="feGaussianBlur4786" /><feOffset
         dx="6"
         dy="6"
         result="offset"
         id="feOffset4788" /><feComposite
         in="SourceGraphic"
         in2="offset"
         operator="over"
         result="composite2"
         id="feComposite4790" /></filter><filter
       style="color-interpolation-filters:sRGB"
       id="filter4804"><feFlood
         flood-opacity="0.498039"
         flood-color="rgb(0,0,0)"
         result="flood"
         id="feFlood4794" /><feComposite
         in="flood"
         in2="SourceGraphic"
         operator="in"
         result="composite1"
         id="feComposite4796" /><feGaussianBlur
         in="composite1"
         stdDeviation="3"
         result="blur"
         id="feGaussianBlur4798" /><feOffset
         dx="6"
         dy="6"
         result="offset"
         id="feOffset4800" /><feComposite
         in="SourceGraphic"
         in2="offset"
         operator="over"
         result="composite2"
         id="feComposite4802" /></filter><filter
       style="color-interpolation-filters:sRGB"
       id="filter4816"><feFlood
         flood-opacity="0.498039"
         flood-color="rgb(0,0,0)"
         result="flood"
         id="feFlood4806" /><feComposite
         in="flood"
         in2="SourceGraphic"
         operator="in"
         result="composite1"
         id="feComposite4808" /><feGaussianBlur
         in="composite1"
         stdDeviation="3"
         result="blur"
         id="feGaussianBlur4810" /><feOffset
         dx="6"
         dy="6"
         result="offset"
         id="feOffset4812" /><feComposite
         in="SourceGraphic"
         in2="offset"
         operator="over"
         result="composite2"
         id="feComposite4814" /></filter><filter
       style="color-interpolation-filters:sRGB"
       id="filter4828"><feFlood
         flood-opacity="0.498039"
         flood-color="rgb(0,0,0)"
         result="flood"
         id="feFlood4818" /><feComposite
         in="flood"
         in2="SourceGraphic"
         operator="in"
         result="composite1"
         id="feComposite4820" /><feGaussianBlur
         in="composite1"
         stdDeviation="3"
         result="blur"
         id="feGaussianBlur4822" /><feOffset
         dx="6"
         dy="6"
         result="offset"
         id="feOffset4824" /><feComposite
         in="SourceGraphic"
         in2="offset"
         operator="over"
         result="composite2"
         id="feComposite4826" /></filter><filter
       style="color-interpolation-filters:sRGB"
       id="filter4840"><feFlood
         flood-opacity="0.498039"
         flood-color="rgb(0,0,0)"
         result="flood"
         id="feFlood4830" /><feComposite
         in="flood"
         in2="SourceGraphic"
         operator="in"
         result="composite1"
         id="feComposite4832" /><feGaussianBlur
         in="composite1"
         stdDeviation="3"
         result="blur"
         id="feGaussianBlur4834" /><feOffset
         dx="6"
         dy="6"
         result="offset"
         id="feOffset4836" /><feComposite
         in="SourceGraphic"
         in2="offset"
         operator="over"
         result="composite2"
         id="feComposite4838" /></filter><filter
       style="color-interpolation-filters:sRGB"
       id="filter4852"><feFlood
         flood-opacity="0.498039"
         flood-color="rgb(0,0,0)"
         result="flood"
         id="feFlood4842" /><feComposite
         in="flood"
         in2="SourceGraphic"
         operator="in"
         result="composite1"
         id="feComposite4844" /><feGaussianBlur
         in="composite1"
         stdDeviation="3"
         result="blur"
         id="feGaussianBlur4846" /><feOffset
         dx="6"
         dy="6"
         result="offset"
         id="feOffset4848" /><feComposite
         in="SourceGraphic"
         in2="offset"
         operator="over"
         result="composite2"
         id="feComposite4850" /></filter><filter
       style="color-interpolation-filters:sRGB"
       id="filter4864"><feFlood
         flood-opacity="0.498039"
         flood-color="rgb(0,0,0)"
         result="flood"
         id="feFlood4854" /><feComposite
         in="flood"
         in2="SourceGraphic"
         operator="in"
         result="composite1"
         id="feComposite4856" /><feGaussianBlur
         in="composite1"
         stdDeviation="3"
         result="blur"
         id="feGaussianBlur4858" /><feOffset
         dx="6"
         dy="6"
         result="offset"
         id="feOffset4860" /><feComposite
         in="SourceGraphic"
         in2="offset"
         operator="over"
         result="composite2"
         id="feComposite4862" /></filter><filter
       style="color-interpolation-filters:sRGB"
       id="filter4876"><feFlood
         flood-opacity="0.498039"
         flood-color="rgb(0,0,0)"
         result="flood"
         id="feFlood4866" /><feComposite
         in="flood"
         in2="SourceGraphic"
         operator="in"
         result="composite1"
         id="feComposite4868" /><feGaussianBlur
         in="composite1"
         stdDeviation="3"
         result="blur"
         id="feGaussianBlur4870" /><feOffset
         dx="6"
         dy="6"
         result="offset"
         id="feOffset4872" /><feComposite
         in="SourceGraphic"
         in2="offset"
         operator="over"
         result="composite2"
         id="feComposite4874" /></filter><filter
       style="color-interpolation-filters:sRGB"
       id="filter4888"><feFlood
         flood-opacity="0.498039"
         flood-color="rgb(0,0,0)"
         result="flood"
         id="feFlood4878" /><feComposite
         in="flood"
         in2="SourceGraphic"
         operator="in"
         result="composite1"
         id="feComposite4880" /><feGaussianBlur
         in="composite1"
         stdDeviation="3"
         result="blur"
         id="feGaussianBlur4882" /><feOffset
         dx="6"
         dy="6"
         result="offset"
         id="feOffset4884" /><feComposite
         in="SourceGraphic"
         in2="offset"
         operator="over"
         result="composite2"
         id="feComposite4886" /></filter><filter
       style="color-interpolation-filters:sRGB"
       id="filter4900"><feFlood
         flood-opacity="0.498039"
         flood-color="rgb(0,0,0)"
         result="flood"
         id="feFlood4890" /><feComposite
         in="flood"
         in2="SourceGraphic"
         operator="in"
         result="composite1"
         id="feComposite4892" /><feGaussianBlur
         in="composite1"
         stdDeviation="3"
         result="blur"
         id="feGaussianBlur4894" /><feOffset
         dx="6"
         dy="6"
         result="offset"
         id="feOffset4896" /><feComposite
         in="SourceGraphic"
         in2="offset"
         operator="over"
         result="composite2"
         id="feComposite4898" /></filter><filter
       style="color-interpolation-filters:sRGB"
       id="filter4912"><feFlood
         flood-opacity="0.498039"
         flood-color="rgb(0,0,0)"
         result="flood"
         id="feFlood4902" /><feComposite
         in="flood"
         in2="SourceGraphic"
         operator="in"
         result="composite1"
         id="feComposite4904" /><feGaussianBlur
         in="composite1"
         stdDeviation="3"
         result="blur"
         id="feGaussianBlur4906" /><feOffset
         dx="6"
         dy="6"
         result="offset"
         id="feOffset4908" /><feComposite
         in="SourceGraphic"
         in2="offset"
         operator="over"
         result="composite2"
         id="feComposite4910" /></filter></defs><style
     type="text/css"
     id="style2">
	.st0{fill:#939598;}
	.st1{fill:none;stroke:#000000;stroke-miterlimit:10;}
	.st2{fill:#FFFFFF;}
	.st3{fill:#FFFFFF;stroke:#000000;stroke-linecap:square;stroke-miterlimit:10;}
	.st4{fill:#FFFFFF;stroke:#000000;stroke-width:4;stroke-miterlimit:10;}
	.st5{fill:#F8F8F8;}
	.st6{fill:#171F42;}
	.st7{fill:#090909;}
</style><g
     id="g60"
     style="fill:#fbffff;fill-opacity:1;stroke:#ffffff;stroke-opacity:1"
     transform="matrix(0.4048583,0,0,0.4048583,-13.890688,-10.445344)"><g
       id="g36"
       style="fill:#fbffff;fill-opacity:1;stroke:#ffffff;stroke-opacity:1"><path
         class="st6"
         d="m 387.2,77.8 v 90.5 h 14 v 5.6 h -41.7 v -5.6 h 14 V 77.8 h -14 v -5.6 h 41.7 v 5.6 z"
         id="path4"
         style="fill:#fbffff;fill-opacity:1;stroke:#ffffff;stroke-opacity:1;filter:url(#filter4828)" /><path
         class="st6"
         d="m 433.6,168.4 h 9.5 v 5.6 h -32.6 v -5.6 H 421 v -48.5 h -10.5 v -5.6 h 23.1 v 10.2 h 0.3 c 1.9,-3.9 4.5,-6.8 7.7,-8.9 3.2,-2.1 7.4,-3.1 12.5,-3.1 6.4,0 11.2,1.6 14.3,4.9 3.1,3.3 4.7,8 4.7,14.1 v 36.9 h 10.2 V 174 H 451 v -5.6 h 9.5 v -38.9 c 0,-3.7 -0.9,-6.4 -2.6,-8.2 -1.7,-1.8 -4.2,-2.6 -7.3,-2.6 -2.4,0 -4.6,0.5 -6.7,1.5 -2.1,1 -3.8,2.6 -5.4,4.7 -1.5,2.1 -2.7,4.8 -3.6,8.1 -0.9,3.3 -1.3,7.1 -1.3,11.6 z"
         id="path6"
         style="fill:#fbffff;fill-opacity:1;stroke:#ffffff;stroke-opacity:1;filter:url(#filter4840)" /><path
         class="st6"
         d="m 542.2,154.6 c -1.5,7 -4.4,12.4 -8.6,16 -4.2,3.6 -9.7,5.4 -16.4,5.4 -4.7,0 -8.9,-0.8 -12.6,-2.5 -3.7,-1.7 -6.9,-3.9 -9.5,-6.8 -2.6,-2.8 -4.6,-6.2 -6,-9.9 -1.4,-3.7 -2.1,-7.8 -2.1,-12 0,-4.4 0.7,-8.6 2.2,-12.5 1.5,-3.9 3.6,-7.3 6.3,-10.3 2.7,-2.9 6,-5.2 9.8,-6.9 3.8,-1.7 8,-2.6 12.7,-2.6 3.3,0 6.4,0.4 9.1,1.3 2.8,0.9 5.2,2 7.2,3.5 2,1.4 3.6,3.1 4.7,5 1.1,1.9 1.7,3.9 1.7,6 0,1.5 -0.3,2.7 -0.8,3.7 -0.5,1 -1.2,1.8 -1.9,2.4 -0.8,0.6 -1.6,1 -2.6,1.3 -1,0.3 -1.8,0.4 -2.7,0.4 -2.3,0 -4.1,-0.7 -5.4,-2.2 -1.3,-1.4 -2,-3.2 -2,-5.2 0,-1.2 0.3,-2.5 0.9,-3.9 0.6,-1.4 1.5,-2.7 2.8,-3.9 -1.6,-1.3 -3.4,-2.1 -5.5,-2.6 -2.1,-0.4 -4,-0.7 -5.7,-0.7 -2.2,0 -4.3,0.3 -6.3,0.9 -2,0.6 -3.8,1.8 -5.4,3.7 -1.6,1.9 -2.8,4.6 -3.7,8.1 -0.9,3.5 -1.4,8.2 -1.4,14 0,5.4 0.4,9.8 1.3,13.2 0.9,3.4 2.1,6 3.6,7.9 1.5,1.9 3.3,3.2 5.4,3.9 2.1,0.7 4.3,1 6.7,1 2.2,0 4.3,-0.3 6.2,-0.9 2,-0.6 3.7,-1.6 5.4,-2.9 1.7,-1.3 3,-3.1 4.3,-5.3 1.2,-2.2 2.2,-4.8 3,-8 0.9,0.1 1.9,0.3 2.8,0.5 0.8,0.3 1.7,0.5 2.5,0.9 z"
         id="path8"
         style="fill:#fbffff;fill-opacity:1;stroke:#ffffff;stroke-opacity:1;filter:url(#filter4852)" /><path
         class="st6"
         d="m 582.7,174 h -34.3 v -5.6 h 10.5 v -48.5 h -10.5 v -5.6 h 23.1 v 10.9 h 0.3 c 0.8,-1.8 1.9,-3.5 3.1,-5 1.2,-1.5 2.6,-2.8 4.1,-4 1.5,-1.1 3.1,-2 4.8,-2.6 1.7,-0.6 3.4,-0.9 5.1,-0.9 2.8,0 5.1,0.8 6.9,2.5 1.8,1.6 2.7,3.9 2.7,6.8 0,2.6 -0.7,4.6 -2.1,6 -1.4,1.4 -3.2,2.1 -5.5,2.1 -2.3,0 -4.1,-0.7 -5.4,-2 -1.2,-1.4 -1.9,-3.1 -1.9,-5.1 0,-1.1 0.2,-2.2 0.6,-3.5 -1.8,0.7 -3.5,1.7 -5.1,3.1 -1.6,1.4 -2.9,3.2 -4.1,5.4 -1.2,2.1 -2.1,4.6 -2.7,7.5 -0.7,2.8 -1,6 -1,9.4 v 23.6 h 11.2 v 5.5 z"
         id="path10"
         style="fill:#fbffff;fill-opacity:1;stroke:#ffffff;stroke-opacity:1;filter:url(#filter4864)" /><path
         class="st6"
         d="m 627.6,168.4 h 10.5 v 5.6 h -33.6 v -5.6 H 615 v -48.5 h -10.5 v -5.6 h 23.1 z m -8.7,-65.9 c -0.7,-0.3 -1.3,-0.6 -1.9,-1.1 -0.5,-0.4 -1.1,-0.9 -1.6,-1.5 l 17.2,-29 c 3.5,1.4 6.9,3.8 10.3,6.9 z"
         id="path12"
         style="fill:#fbffff;fill-opacity:1;stroke:#ffffff;stroke-opacity:1;filter:url(#filter4876)" /><path
         class="st6"
         d="m 671.8,174.9 -24.7,-55 h -10.4 v -5.6 h 34 v 5.6 h -9.8 l 17.4,38.9 h 0.3 l 17.3,-38.9 H 686 v -5.6 h 25.9 v 5.6 h -10.2 l -24.3,55 z"
         id="path14"
         style="fill:#fbffff;fill-opacity:1;stroke:#ffffff;stroke-opacity:1;filter:url(#filter4888)" /><path
         class="st6"
         d="m 768.6,155 c -1.5,6.8 -4.4,12 -8.7,15.5 -4.3,3.6 -9.9,5.4 -16.7,5.4 -4.7,0 -8.9,-0.8 -12.6,-2.5 -3.7,-1.7 -6.8,-3.9 -9.4,-6.8 -2.6,-2.8 -4.5,-6.2 -5.9,-10 -1.4,-3.8 -2,-7.9 -2,-12.1 0,-4.4 0.7,-8.5 2.1,-12.5 1.4,-3.9 3.4,-7.3 6,-10.2 2.6,-2.9 5.7,-5.2 9.3,-6.9 3.6,-1.7 7.7,-2.6 12.1,-2.6 4.1,0 7.8,0.7 11.1,2.2 3.3,1.4 6,3.5 8.3,6.1 2.3,2.6 4,5.7 5.3,9.3 1.2,3.6 1.9,7.5 2,11.8 h -42.2 c 0,0.8 -0.1,1.3 -0.1,1.6 0,0.3 0,0.4 0,0.5 0,5.5 0.4,10 1.2,13.4 0.8,3.5 2,6.2 3.4,8.1 1.5,1.9 3.2,3.3 5.3,4 2.1,0.7 4.3,1.1 6.8,1.1 2.3,0 4.4,-0.3 6.5,-0.9 2,-0.6 3.9,-1.6 5.5,-2.9 1.6,-1.3 3.1,-3.1 4.3,-5.2 1.2,-2.1 2.2,-4.7 3,-7.7 0.9,0.1 1.9,0.3 2.8,0.5 0.9,0.2 1.7,0.5 2.6,0.8 z m -13.3,-18.7 c -0.1,-3.9 -0.5,-7 -1.2,-9.4 -0.7,-2.4 -1.6,-4.3 -2.7,-5.6 -1.1,-1.4 -2.4,-2.3 -4,-2.8 -1.5,-0.5 -3.2,-0.7 -5,-0.7 -1.9,0 -3.7,0.3 -5.4,0.8 -1.7,0.6 -3.1,1.5 -4.4,2.9 -1.3,1.4 -2.4,3.3 -3.3,5.7 -0.9,2.4 -1.5,5.4 -1.8,9.1 z"
         id="path16"
         style="fill:#fbffff;fill-opacity:1;stroke:#ffffff;stroke-opacity:1;filter:url(#filter4900)" /><path
         class="st6"
         d="m 797.9,168.4 h 10.5 v 5.6 h -33.6 v -5.6 h 10.5 V 77.8 h -10.5 v -5.6 h 23.1 z"
         id="path18"
         style="fill:#fbffff;fill-opacity:1;stroke:#ffffff;stroke-opacity:1;filter:url(#filter4912)" /><path
         class="st6"
         d="m 372.3,291.7 v -84.4 h -13.1 v -5.2 H 398 v 5.2 h -13 v 37.8 h 43.7 v -37.8 h -13.1 v -5.2 h 38.8 v 5.2 h -13.1 v 84.4 h 13.1 v 5.2 h -38.8 v -5.2 h 13.1 V 250.4 H 385 v 41.3 h 13.1 v 5.2 h -38.8 v -5.2 z"
         id="path20"
         style="fill:#fbffff;fill-opacity:1;stroke:#ffffff;stroke-opacity:1;filter:url(#filter4816)" /><path
         class="st6"
         d="m 484.7,291.7 h 9.8 v 5.2 h -31.3 v -5.2 h 9.8 v -45.2 h -9.8 v -5.2 h 21.5 z m -5.9,-68.8 c -1.1,0 -2.2,-0.2 -3.1,-0.6 -0.9,-0.4 -1.8,-0.9 -2.5,-1.6 -0.7,-0.7 -1.3,-1.5 -1.7,-2.4 -0.4,-0.9 -0.6,-2 -0.6,-3.2 0,-1.1 0.2,-2.2 0.6,-3.1 0.4,-1 1,-1.8 1.7,-2.5 0.7,-0.7 1.5,-1.2 2.5,-1.6 1,-0.4 2,-0.6 3.1,-0.6 1.1,0 2.1,0.2 3.1,0.6 1,0.4 1.8,0.9 2.5,1.6 0.7,0.7 1.3,1.5 1.7,2.4 0.4,0.9 0.6,2 0.6,3.2 0,1.2 -0.2,2.2 -0.6,3.2 -0.4,1 -1,1.8 -1.7,2.4 -0.7,0.7 -1.5,1.2 -2.5,1.6 -1,0.4 -2,0.6 -3.1,0.6 z"
         id="path22"
         style="fill:#fbffff;fill-opacity:1;stroke:#ffffff;stroke-opacity:1;filter:url(#filter4804)" /><path
         class="st6"
         d="m 538,259.8 c -0.2,-2.8 -0.7,-5.2 -1.4,-7.2 -0.7,-2 -1.7,-3.5 -2.9,-4.8 -1.2,-1.2 -2.7,-2.1 -4.4,-2.6 -1.7,-0.5 -3.7,-0.8 -5.9,-0.8 -1.7,0 -3.3,0.2 -4.7,0.5 -1.4,0.3 -2.7,0.8 -3.7,1.5 -1,0.7 -1.9,1.6 -2.4,2.6 -0.6,1.1 -0.9,2.4 -0.9,3.9 0,1.5 0.3,2.8 0.8,3.8 0.5,1 1.4,1.9 2.7,2.6 1.2,0.8 2.8,1.5 4.8,2.2 1.9,0.7 4.3,1.5 7.1,2.5 2.3,0.8 4.5,1.6 6.7,2.5 2.2,0.9 4.2,2 6,3.3 1.8,1.3 3.2,2.9 4.3,4.7 1.1,1.8 1.6,4.1 1.6,6.8 0,3 -0.7,5.6 -2,7.8 -1.3,2.2 -3.1,4 -5.4,5.5 -2.2,1.4 -4.7,2.5 -7.6,3.2 -2.8,0.7 -5.7,1 -8.7,1 -1.6,0 -3.2,-0.1 -5,-0.3 -1.8,-0.2 -3.5,-0.4 -5.2,-0.7 -1.7,-0.3 -3.4,-0.7 -4.9,-1.1 -1.5,-0.4 -2.9,-0.8 -4.1,-1.3 l -0.5,-18.9 h 4.5 c 0.2,3.3 0.7,6.1 1.4,8.3 0.7,2.2 1.7,4 3,5.4 1.3,1.3 2.8,2.3 4.7,2.9 1.9,0.6 4,0.8 6.5,0.8 1.9,0 3.6,-0.2 5.2,-0.5 1.6,-0.3 3,-0.8 4.1,-1.6 1.1,-0.8 2.1,-1.7 2.8,-2.8 0.7,-1.2 1,-2.6 1,-4.2 0,-1.4 -0.3,-2.6 -0.8,-3.6 -0.5,-0.9 -1.3,-1.8 -2.5,-2.5 -1.1,-0.7 -2.6,-1.4 -4.4,-2.1 -1.8,-0.7 -3.9,-1.4 -6.4,-2.3 -2.5,-0.9 -4.9,-1.8 -7.1,-2.7 -2.2,-0.9 -4.3,-2.1 -6,-3.4 -1.7,-1.3 -3.1,-2.9 -4.2,-4.8 -1,-1.9 -1.6,-4.2 -1.6,-6.9 0,-3 0.6,-5.5 1.8,-7.7 1.2,-2.2 2.8,-3.9 4.9,-5.3 2,-1.4 4.4,-2.4 7,-3.1 2.6,-0.7 5.4,-1 8.2,-1 1.4,0 2.9,0.1 4.5,0.2 1.6,0.2 3.1,0.4 4.7,0.6 1.5,0.3 3,0.6 4.4,0.9 1.4,0.3 2.7,0.6 3.9,0.9 l 0.5,17.6 H 538 Z"
         id="path24"
         style="fill:#fbffff;fill-opacity:1;stroke:#ffffff;stroke-opacity:1;filter:url(#filter4792)" /><path
         class="st6"
         d="m 593.3,283.9 c -1.2,5.1 -3.1,8.8 -5.8,11.3 -2.7,2.4 -6.4,3.6 -11.2,3.6 -2.5,0 -4.7,-0.3 -6.7,-0.9 -2,-0.6 -3.7,-1.6 -5.1,-2.9 -1.4,-1.3 -2.5,-3 -3.2,-5.1 -0.7,-2.1 -1.1,-4.6 -1.1,-7.5 v -35.8 h -9.8 v -5.2 h 9.8 v -12.7 l 11.7,-2 v 14.6 h 17 v 5.2 h -17 v 37.2 c 0,1.8 0.2,3.2 0.5,4.4 0.3,1.1 0.8,2 1.4,2.7 0.6,0.7 1.3,1.1 2.2,1.3 0.8,0.2 1.8,0.4 2.8,0.4 1.4,0 2.6,-0.2 3.6,-0.6 1,-0.4 1.9,-1 2.6,-1.9 0.8,-0.8 1.4,-1.9 2,-3.2 0.5,-1.3 1.1,-2.7 1.5,-4.4 0.8,0.1 1.6,0.3 2.4,0.5 0.8,0.2 1.7,0.6 2.4,1 z"
         id="path26"
         style="fill:#fbffff;fill-opacity:1;stroke:#ffffff;stroke-opacity:1;filter:url(#filter4780)" /><path
         class="st6"
         d="m 599.3,269.7 c 0,-4.1 0.6,-8 1.9,-11.6 1.3,-3.7 3.2,-6.9 5.6,-9.6 2.5,-2.7 5.5,-4.9 9.1,-6.5 3.6,-1.6 7.7,-2.4 12.2,-2.4 4.5,0 8.5,0.8 12,2.3 3.5,1.5 6.4,3.6 8.7,6.3 2.3,2.7 4.1,5.7 5.3,9.3 1.2,3.5 1.8,7.3 1.8,11.2 0,4.1 -0.6,8 -1.9,11.6 -1.3,3.7 -3.2,6.9 -5.6,9.6 -2.5,2.7 -5.5,4.9 -9.1,6.5 -3.6,1.6 -7.7,2.4 -12.2,2.4 -4.5,0 -8.5,-0.8 -12,-2.3 -3.5,-1.5 -6.4,-3.6 -8.7,-6.3 -2.3,-2.7 -4.1,-5.7 -5.3,-9.3 -1.2,-3.5 -1.8,-7.3 -1.8,-11.2 z m 12.9,-0.3 c 0,4.7 0.3,8.7 1,11.8 0.7,3.1 1.6,5.6 2.9,7.5 1.3,1.9 2.8,3.2 4.8,3.9 1.9,0.8 4.2,1.1 6.7,1.1 2.5,0 4.8,-0.4 6.7,-1.2 1.9,-0.8 3.6,-2.1 4.9,-4 1.3,-1.9 2.3,-4.4 3,-7.6 0.7,-3.2 1,-7.2 1,-12 0,-4.7 -0.3,-8.7 -1,-11.8 -0.7,-3.1 -1.6,-5.6 -2.9,-7.5 -1.3,-1.9 -2.9,-3.2 -4.8,-3.9 -1.9,-0.8 -4.2,-1.1 -6.7,-1.1 -2.6,0 -4.8,0.4 -6.8,1.2 -1.9,0.8 -3.6,2.1 -4.9,4 -1.3,1.9 -2.3,4.4 -3,7.6 -0.6,3.2 -0.9,7.2 -0.9,12 z m 13.5,-39 c -0.7,-0.3 -1.2,-0.6 -1.7,-1 -0.5,-0.4 -1,-0.8 -1.5,-1.4 l 16,-27 c 3.3,1.3 6.5,3.5 9.6,6.5 z"
         id="path28"
         style="fill:#fbffff;fill-opacity:1;stroke:#ffffff;stroke-opacity:1;filter:url(#filter4768)" /><path
         class="st6"
         d="m 692.8,297 h -32 v -5.2 h 9.8 v -45.2 h -9.8 v -5.2 h 21.5 v 10.1 h 0.3 c 0.8,-1.7 1.8,-3.3 2.9,-4.7 1.2,-1.4 2.4,-2.6 3.8,-3.7 1.4,-1 2.9,-1.8 4.4,-2.4 1.5,-0.6 3.2,-0.8 4.8,-0.8 2.6,0 4.8,0.8 6.5,2.3 1.7,1.5 2.5,3.6 2.5,6.3 0,2.4 -0.7,4.3 -2,5.6 -1.3,1.3 -3,2 -5.1,2 -2.2,0 -3.8,-0.6 -5,-1.9 -1.2,-1.3 -1.7,-2.8 -1.7,-4.8 0,-1 0.2,-2.1 0.6,-3.3 -1.7,0.6 -3.3,1.6 -4.7,2.9 -1.5,1.3 -2.7,3 -3.8,5 -1.1,2 -1.9,4.3 -2.5,7 -0.6,2.6 -0.9,5.6 -0.9,8.8 v 22 h 10.4 z"
         id="path30"
         style="fill:#fbffff;fill-opacity:1;stroke:#ffffff;stroke-opacity:1;filter:url(#filter4756)" /><path
         class="st6"
         d="m 734.7,291.7 h 9.8 v 5.2 h -31.3 v -5.2 h 9.8 v -45.2 h -9.8 v -5.2 h 21.5 z m -5.9,-68.8 c -1.1,0 -2.2,-0.2 -3.1,-0.6 -0.9,-0.4 -1.8,-0.9 -2.5,-1.6 -0.7,-0.7 -1.3,-1.5 -1.7,-2.4 -0.4,-0.9 -0.6,-2 -0.6,-3.2 0,-1.1 0.2,-2.2 0.6,-3.1 0.4,-1 1,-1.8 1.7,-2.5 0.7,-0.7 1.5,-1.2 2.5,-1.6 1,-0.4 2,-0.6 3.1,-0.6 1.1,0 2.1,0.2 3.1,0.6 1,0.4 1.8,0.9 2.5,1.6 0.7,0.7 1.3,1.5 1.7,2.4 0.4,0.9 0.6,2 0.6,3.2 0,1.2 -0.2,2.2 -0.6,3.2 -0.4,1 -1,1.8 -1.7,2.4 -0.7,0.7 -1.5,1.2 -2.5,1.6 -1,0.4 -2,0.6 -3.1,0.6 z"
         id="path32"
         style="fill:#fbffff;fill-opacity:1;stroke:#ffffff;stroke-opacity:1;filter:url(#filter4744)" /><path
         class="st6"
         d="m 806.8,297 c -1.8,0.3 -3.5,0.6 -5.1,0.7 -1.6,0.1 -2.8,0.1 -3.7,0.1 -2.3,0 -4.2,-0.2 -5.7,-0.6 -1.5,-0.4 -2.7,-0.9 -3.6,-1.6 -0.9,-0.7 -1.5,-1.5 -1.9,-2.5 -0.4,-1 -0.6,-2.1 -0.7,-3.3 h -0.3 c -1.2,1.7 -2.5,3.1 -3.9,4.3 -1.4,1.2 -2.9,2.1 -4.4,2.8 -1.5,0.7 -3.1,1.2 -4.7,1.5 -1.6,0.3 -3.2,0.5 -4.8,0.5 -2.7,0 -5,-0.4 -7.1,-1.1 -2.1,-0.7 -3.9,-1.7 -5.3,-3 -1.4,-1.3 -2.5,-2.9 -3.3,-4.7 -0.7,-1.8 -1.1,-3.8 -1.1,-6 0,-6 3,-10.6 8.9,-13.8 5.9,-3.2 14.5,-4.8 25.7,-5.1 0,-2 0.1,-3.7 0.1,-5.3 0,-1.6 0,-3.1 0,-4.6 0,-4 -0.8,-6.7 -2.4,-8.3 -1.6,-1.6 -4.2,-2.4 -7.7,-2.4 -2.3,0 -4.5,0.3 -6.3,0.8 -1.9,0.5 -3.4,1.2 -4.5,2.1 1,1 1.8,2.1 2.3,3.2 0.5,1.1 0.8,2.2 0.8,3.3 0,1.8 -0.6,3.4 -1.8,4.6 -1.2,1.2 -2.8,1.8 -4.8,1.8 -0.9,0 -1.7,-0.1 -2.5,-0.4 -0.8,-0.3 -1.5,-0.7 -2.2,-1.2 -0.6,-0.6 -1.1,-1.3 -1.5,-2.1 -0.4,-0.8 -0.6,-1.8 -0.6,-3 0,-1.8 0.5,-3.5 1.5,-5.2 1,-1.7 2.4,-3.2 4.4,-4.5 1.9,-1.3 4.4,-2.3 7.2,-3.1 2.9,-0.8 6.3,-1.2 10.1,-1.2 3.1,0 5.9,0.3 8.3,0.9 2.4,0.6 4.5,1.6 6.1,3 1.7,1.4 2.9,3.3 3.8,5.6 0.8,2.3 1.3,5.3 1.3,8.7 0,0.9 0,2.3 0,4.3 0,2 -0.1,4.2 -0.1,6.6 0,2.4 -0.1,4.8 -0.1,7.3 0,2.5 0,4.6 0,6.5 0,1.9 0,3.5 0.1,4.8 0.1,1.3 0.3,2.3 0.7,3.1 0.3,0.8 0.9,1.3 1.6,1.6 0.7,0.3 1.7,0.5 2.9,0.5 1.1,0 2.5,-0.1 4.3,-0.4 z m -20.9,-26.9 c -4.7,0.1 -8.6,0.5 -11.5,1.1 -2.9,0.6 -5.2,1.4 -6.8,2.5 -1.6,1.1 -2.7,2.4 -3.3,3.9 -0.6,1.5 -0.8,3.3 -0.8,5.2 0,3.4 0.7,5.9 2.1,7.6 1.4,1.7 3.4,2.5 5.8,2.5 1.3,0 2.9,-0.3 4.5,-0.8 1.7,-0.6 3.3,-1.5 4.7,-2.8 1.5,-1.3 2.7,-3 3.7,-5.1 1,-2.1 1.5,-4.7 1.5,-7.8 v -6.3 z"
         id="path34"
         style="fill:#fbffff;fill-opacity:1;stroke:#ffffff;stroke-opacity:1;filter:url(#filter4732)" /></g><g
       id="g58"
       style="fill:#fbffff;fill-opacity:1;stroke:#ffffff;stroke-opacity:1"><path
         class="st6"
         d="m 305.9,62.8 18.5,-16.1 c 2.8,-2.4 1.1,-7.2 -2.6,-7.2 H 222 c -3.7,0 -5.5,4.9 -2.6,7.3 l 18.5,15.9 c 0.2,0.2 0.3,0.8 0.5,0.8 h 67.1 c 0.1,0 0.3,-0.5 0.4,-0.7 z"
         id="path38"
         style="fill:#fbffff;fill-opacity:1;stroke:#ffffff;stroke-opacity:1;filter:url(#filter4708)" /><path
         class="st6"
         d="M 149.2,39.5 H 49.4 c -3.7,0 -5.5,4.9 -2.6,7.3 l 18.5,15.9 c 0.2,0.2 0.3,0.8 0.5,0.8 h 67.1 c 0.2,0 0.3,-0.5 0.5,-0.6 l 18.5,-16.1 c 2.8,-2.5 1.1,-7.3 -2.7,-7.3 z"
         id="path40"
         style="fill:#fbffff;fill-opacity:1;stroke:#ffffff;stroke-opacity:1;filter:url(#filter4636)" /><path
         class="st6"
         d="m 133.3,306 c -0.2,-0.2 -0.3,-0.6 -0.5,-0.6 h -67 c -0.2,0 -0.3,0.5 -0.5,0.6 l -18.5,16.1 c -2.8,2.4 -1.1,7.3 2.6,7.3 h 99.9 c 3.7,0 5.5,-4.7 2.6,-7.1 z"
         id="path42"
         style="fill:#fbffff;fill-opacity:1;stroke:#ffffff;stroke-opacity:1;filter:url(#filter4660)" /><path
         class="st6"
         d="m 305.9,306 c -0.2,-0.2 -0.3,-0.6 -0.5,-0.6 h -67.1 c -0.2,0 -0.3,0.5 -0.5,0.6 l -18.5,16.1 c -2.8,2.4 -1.1,7.3 2.6,7.3 h 99.9 c 3.7,0 5.5,-4.7 2.6,-7.1 z"
         id="path44"
         style="fill:#fbffff;fill-opacity:1;stroke:#ffffff;stroke-opacity:1;filter:url(#filter4696)" /><path
         class="st6"
         d="m 305.1,297.5 v -226 h -67 v 96 h -86.7 c -2.5,0 -4.3,2.2 -4.3,4.7 V 197 c 0,2.5 1.8,4.5 4.3,4.5 h 86.7 v 96 z m -14,-212.1 c 0,-2 1.5,-3.7 3.5,-3.7 2,0 3.5,1.7 3.5,3.7 v 198.1 c 0,2 -1.5,3.7 -3.5,3.7 -2,0 -3.5,-1.7 -3.5,-3.7 z m -27,2.2 c 0,-2.8 2.3,-5.1 5.1,-5.1 h 0.7 c 2.8,0 5.1,2.3 5.1,5.1 v 194.7 c 0,2.8 -2.3,5.1 -5.1,5.1 h -0.7 c -2.8,0 -5.1,-2.3 -5.1,-5.1 z"
         id="path46"
         style="fill:#fbffff;fill-opacity:1;stroke:#ffffff;stroke-opacity:1;filter:url(#filter4720)" /><path
         class="st6"
         d="m 132.1,297.5 v -226 h -66 v 226 z m -14,-212.2 c 0,-2 1.5,-3.7 3.5,-3.7 2,0 3.5,1.7 3.5,3.7 v 198.1 c 0,2 -1.5,3.7 -3.5,3.7 -2,0 -3.5,-1.7 -3.5,-3.7 z m -27,2.3 c 0,-2.8 2.3,-5.1 5.1,-5.1 H 97 c 2.8,0 5.1,2.3 5.1,5.1 v 194.7 c 0,2.8 -2.3,5.1 -5.1,5.1 h -0.7 c -2.8,0 -5.1,-2.3 -5.1,-5.1 V 87.6 Z"
         id="path48"
         style="fill:#fbffff;fill-opacity:1;stroke:#ffffff;stroke-opacity:1;filter:url(#filter4648)" /><path
         class="st6"
         d="m 48.6,33.5 h 100.9 c 1.9,0 3.5,-1.6 3.5,-3.5 0,-1.9 -1.6,-3.5 -3.5,-3.5 H 48.6 c -1.9,0 -3.5,1.6 -3.5,3.5 0,1.9 1.5,3.5 3.5,3.5 z"
         id="path50"
         style="fill:#fbffff;fill-opacity:1;stroke:#ffffff;stroke-opacity:1;filter:url(#filter4624)" /><path
         class="st6"
         d="m 221.2,33.5 h 100.9 c 1.9,0 3.5,-1.6 3.5,-3.5 0,-1.9 -1.6,-3.5 -3.5,-3.5 H 221.2 c -1.9,0 -3.5,1.6 -3.5,3.5 0,1.9 1.6,3.5 3.5,3.5 z"
         id="path52"
         style="fill:#fbffff;fill-opacity:1;stroke:#ffffff;stroke-opacity:1;filter:url(#filter4612)" /><path
         class="st6"
         d="M 149.4,335.5 H 48.6 c -1.9,0 -3.5,1.6 -3.5,3.5 0,1.9 1.6,3.5 3.5,3.5 h 100.9 c 1.9,0 3.5,-1.6 3.5,-3.5 -0.1,-2 -1.6,-3.5 -3.6,-3.5 z"
         id="path54"
         style="fill:#fbffff;fill-opacity:1;stroke:#ffffff;stroke-opacity:1;filter:url(#filter4672)" /><path
         class="st6"
         d="M 322.1,335.5 H 221.2 c -1.9,0 -3.5,1.6 -3.5,3.5 0,1.9 1.6,3.5 3.5,3.5 h 100.9 c 1.9,0 3.5,-1.6 3.5,-3.5 0,-2 -1.6,-3.5 -3.5,-3.5 z"
         id="path56"
         style="fill:#fbffff;fill-opacity:1;stroke:#ffffff;stroke-opacity:1;filter:url(#filter4684)" /></g></g></svg>