<?xml version="1.0" standalone="no"?>
<!DOCTYPE svg PUBLIC "-//W3C//DTD SVG 20010904//EN"
 "http://www.w3.org/TR/2001/REC-SVG-20010904/DTD/svg10.dtd">
<svg version="1.0" xmlns="http://www.w3.org/2000/svg"
 width="310.000000pt" height="310.000000pt" viewBox="0 0 310.000000 310.000000"
 preserveAspectRatio="xMidYMid meet">
<metadata>
Created by potrace 1.11, written by Peter Selinger 2001-2013
</metadata>
<g transform="translate(0.000000,310.000000) scale(0.100000,-0.100000)"
fill="#000000" stroke="none">
<path d="M265 3075 c0 -14 4 -25 8 -25 5 0 5 -5 2 -10 -4 -6 -12 -7 -18 -3 -9
5 -9 3 -2 -8 6 -8 12 -27 14 -43 2 -21 -1 -26 -11 -21 -10 6 -11 5 0 -6 14
-16 16 -33 2 -24 -6 3 -7 -1 -4 -9 3 -9 11 -13 18 -9 8 5 8 3 1 -8 -6 -8 -10
-30 -9 -49 1 -19 -3 -38 -9 -42 -7 -4 -7 -8 -2 -8 6 0 11 -20 12 -45 2 -34 -1
-44 -10 -39 -9 5 -9 3 1 -7 14 -16 16 -33 2 -24 -6 3 -7 -1 -4 -9 3 -9 11 -13
17 -9 6 4 7 1 1 -8 -5 -8 -8 -31 -7 -51 2 -24 -2 -38 -10 -38 -7 0 -6 -4 3
-10 8 -5 11 -10 7 -10 -4 0 -3 -10 4 -21 9 -17 8 -20 -2 -14 -8 6 -11 4 -6 -7
3 -9 0 -21 -6 -28 -9 -10 -8 -12 6 -7 15 6 16 4 7 -13 -8 -14 -8 -20 0 -20 6
0 8 -5 5 -10 -4 -6 -12 -7 -18 -3 -7 3 -3 -4 8 -17 11 -13 14 -20 6 -15 -11 6
-13 4 -8 -8 4 -10 1 -17 -5 -17 -7 0 -3 -7 8 -16 10 -8 14 -13 8 -10 -7 4 -11
-7 -10 -29 0 -19 5 -35 9 -35 5 0 5 -5 2 -10 -4 -6 -12 -7 -18 -3 -7 3 -3 -4
8 -17 11 -13 14 -20 6 -15 -11 6 -13 4 -8 -8 4 -10 1 -17 -5 -17 -7 0 -3 -7 8
-16 10 -8 14 -13 7 -10 -8 5 -10 -8 -7 -44 3 -36 0 -50 -8 -50 -8 0 -9 -3 -3
-8 6 -4 11 -26 13 -50 2 -33 -1 -42 -10 -36 -10 6 -11 4 0 -7 14 -16 16 -33 2
-24 -6 3 -7 -1 -4 -9 3 -9 11 -13 18 -9 8 5 8 3 1 -8 -6 -8 -10 -30 -9 -49 1
-19 -3 -38 -9 -42 -7 -4 -7 -8 -2 -8 6 0 11 -20 12 -45 2 -34 -1 -44 -10 -39
-9 5 -9 3 1 -7 14 -16 16 -33 2 -24 -6 3 -7 -1 -4 -9 3 -9 11 -13 17 -9 6 4 7
1 1 -8 -5 -8 -8 -31 -7 -51 2 -24 -2 -38 -10 -38 -7 0 -6 -4 3 -10 8 -5 11
-10 7 -10 -4 0 -3 -10 4 -21 9 -17 8 -20 -2 -14 -8 6 -11 4 -6 -7 3 -9 0 -21
-6 -28 -9 -10 -8 -12 6 -7 15 6 16 4 7 -13 -8 -14 -8 -20 0 -20 6 0 8 -5 5
-10 -4 -6 -12 -7 -18 -3 -7 3 -3 -4 8 -17 11 -13 14 -20 6 -15 -11 6 -13 4 -8
-8 4 -10 1 -17 -5 -17 -7 0 -3 -7 8 -16 10 -8 14 -13 8 -10 -7 4 -11 -7 -10
-29 0 -19 5 -35 9 -35 5 0 5 -5 2 -10 -4 -6 -12 -7 -18 -3 -7 3 -3 -4 8 -17
11 -13 14 -20 6 -15 -11 6 -13 4 -8 -8 4 -10 1 -17 -5 -17 -7 0 -3 -7 8 -16
10 -8 14 -13 7 -10 -8 5 -10 -8 -7 -44 3 -36 0 -50 -8 -50 -8 0 -9 -3 -3 -8 6
-4 11 -26 13 -50 2 -33 -1 -42 -10 -36 -10 6 -11 4 0 -7 14 -16 16 -33 2 -24
-6 3 -7 -1 -4 -9 3 -9 11 -13 18 -9 8 5 8 3 1 -8 -6 -8 -10 -30 -9 -49 1 -19
-3 -38 -9 -42 -7 -4 -7 -8 -2 -8 6 0 11 -20 12 -45 2 -34 -1 -44 -10 -39 -9 5
-9 3 1 -7 14 -16 16 -33 2 -24 -6 3 -7 -1 -4 -9 3 -9 11 -13 17 -9 6 4 7 1 1
-8 -5 -8 -8 -31 -7 -51 2 -24 -2 -38 -10 -38 -7 0 -6 -4 3 -10 8 -5 11 -10 7
-10 -4 0 -3 -10 4 -21 9 -17 8 -20 -2 -14 -8 6 -11 4 -6 -7 3 -9 0 -21 -6 -28
-9 -10 -8 -12 6 -7 15 6 16 4 7 -13 -8 -14 -8 -20 0 -20 6 0 8 -5 5 -10 -4 -6
-12 -7 -18 -3 -7 3 -3 -4 8 -17 11 -13 14 -20 6 -15 -11 6 -13 4 -8 -8 4 -10
1 -17 -5 -17 -7 0 -3 -7 8 -16 10 -8 14 -13 8 -10 -7 4 -11 -7 -10 -29 0 -19
5 -35 9 -35 5 0 5 -5 2 -10 -4 -6 -12 -7 -18 -3 -7 3 -3 -4 8 -17 11 -13 14
-20 6 -15 -11 6 -13 4 -8 -8 4 -10 1 -17 -5 -17 -7 0 -3 -7 8 -16 10 -8 14
-13 7 -10 -8 5 -10 -8 -7 -44 3 -36 0 -50 -8 -50 -9 0 -8 -4 2 -10 8 -5 11
-10 7 -10 -4 0 -3 -10 4 -21 9 -17 8 -20 -2 -14 -8 6 -11 4 -6 -7 3 -9 0 -21
-6 -28 -9 -10 -8 -12 6 -7 14 5 16 3 10 -11 -5 -9 -8 -28 -8 -42 l0 -25 381
-3 c330 -2 383 0 394 13 7 8 8 15 3 15 -5 0 -9 18 -9 40 0 23 3 37 9 33 6 -4
7 -1 2 8 -13 20 -13 49 -1 49 7 0 7 3 1 8 -15 10 -19 46 -5 37 9 -6 9 -2 1 14
-9 16 -9 21 1 21 8 0 9 3 3 8 -12 9 -20 46 -8 39 5 -3 9 3 9 13 0 10 -4 16 -8
14 -12 -8 -9 11 4 24 7 7 8 12 2 12 -6 0 -10 18 -10 39 0 23 4 37 10 34 5 -4
6 -1 1 8 -13 20 -13 49 -1 49 7 0 7 3 1 8 -13 9 -20 46 -7 38 5 -3 9 1 9 9 0
8 -3 15 -7 15 -4 0 -7 13 -7 30 0 18 4 27 11 23 6 -4 5 1 -3 10 -9 12 -10 17
-2 17 7 0 9 5 4 13 -11 17 -10 77 2 77 7 0 7 3 0 8 -12 9 -20 46 -8 39 5 -3 9
3 9 13 0 10 -4 16 -8 14 -12 -8 -9 11 4 24 7 7 8 12 2 12 -6 0 -10 18 -10 39
0 23 4 37 10 34 5 -4 6 -1 1 8 -13 20 -13 49 -1 49 7 0 7 3 1 8 -13 9 -20 46
-7 38 5 -3 9 1 9 9 0 8 -3 15 -7 15 -4 0 -7 13 -7 30 0 18 4 27 11 23 6 -4 5
1 -3 10 -10 13 -10 17 -1 17 9 0 10 3 1 13 -10 13 -8 47 4 66 3 5 1 12 -5 16
-5 3 -10 11 -10 16 0 6 5 7 11 3 8 -5 8 -1 0 14 -14 27 -14 35 2 26 9 -6 9 -4
-1 8 -9 11 -10 18 -2 23 6 4 7 12 0 24 -6 12 -5 22 1 28 8 8 7 13 0 17 -6 4
-11 12 -11 17 0 6 5 7 11 3 8 -5 8 -1 0 14 -14 27 -14 35 2 26 9 -6 9 -4 -1 8
-9 11 -10 18 -2 23 7 4 7 12 0 26 -8 14 -7 19 2 19 8 0 9 3 3 8 -15 10 -16 64
-1 55 6 -4 5 1 -3 10 -9 12 -10 17 -2 17 7 0 9 5 4 13 -11 17 -10 77 2 77 7 0
7 3 0 8 -12 9 -20 46 -8 39 5 -3 9 3 9 13 0 10 -4 16 -8 14 -12 -8 -9 11 4 24
7 7 8 12 2 12 -6 0 -10 18 -10 39 0 23 4 37 10 34 5 -4 6 -1 1 8 -13 20 -13
49 -1 49 7 0 7 3 1 8 -13 9 -20 46 -7 38 5 -3 9 1 9 9 0 8 -3 15 -7 15 -4 0
-7 13 -7 30 0 18 4 27 11 23 6 -4 5 1 -3 10 -10 13 -10 17 -1 17 9 0 10 3 1
13 -10 13 -8 47 4 66 3 5 1 12 -5 16 -5 3 -10 11 -10 16 0 6 5 7 11 3 8 -5 8
-1 0 14 -14 27 -14 35 2 26 9 -6 9 -4 -1 8 -9 11 -10 18 -2 23 6 4 7 12 0 24
-6 12 -5 22 1 28 8 8 7 13 0 17 -6 4 -11 12 -11 17 0 6 5 7 11 3 8 -5 8 -1 0
14 -14 27 -14 35 2 26 9 -6 9 -4 -1 8 -9 11 -10 18 -2 23 7 4 7 12 0 26 -8 14
-7 19 2 19 8 0 9 3 3 8 -15 10 -16 64 -1 55 6 -4 5 1 -3 10 -9 12 -10 17 -2
17 7 0 9 5 4 13 -11 17 -10 77 2 77 7 0 7 3 0 8 -12 9 -20 46 -8 39 5 -3 9 3
9 13 0 10 -4 16 -8 14 -12 -8 -9 11 4 24 7 7 8 12 2 12 -6 0 -10 18 -10 39 0
23 4 37 10 34 5 -4 6 -1 1 8 -13 20 -13 49 -1 49 7 0 7 3 1 8 -14 10 -19 46
-5 37 12 -8 9 17 -4 26 -4 4 -3 17 4 29 8 15 8 20 1 16 -6 -4 -11 -3 -11 3 0
5 5 13 10 16 7 4 7 12 0 25 -13 25 -13 33 3 24 9 -6 9 -5 0 8 -7 8 -10 18 -6
21 3 4 -169 7 -383 7 l-389 0 0 -25z"/>
<path d="M2065 3080 c2 -11 -1 -22 -6 -25 -5 -4 -6 -12 -2 -18 11 -17 11 -57
1 -63 -4 -3 -5 -11 -1 -17 13 -21 14 -49 1 -41 -7 5 -8 3 -2 -7 10 -16 14
-120 4 -114 -4 2 -7 -2 -7 -10 0 -8 4 -12 7 -10 4 3 8 -6 8 -20 0 -14 -5 -22
-11 -18 -6 4 -7 1 -1 -8 12 -19 12 -30 1 -53 -5 -11 -5 -16 0 -13 11 7 11 -72
0 -90 -4 -6 -3 -14 1 -17 10 -6 10 -46 -1 -63 -4 -6 -3 -14 1 -17 10 -6 10
-46 -1 -63 -4 -6 -3 -14 1 -17 10 -6 10 -46 -1 -62 -3 -6 -3 -14 0 -18 13 -12
14 -48 1 -40 -7 5 -8 3 -2 -7 10 -16 14 -120 4 -114 -4 2 -7 -2 -7 -10 0 -8 4
-12 7 -10 4 3 8 -6 8 -20 0 -16 -5 -22 -12 -18 -6 4 -4 -1 4 -12 8 -10 13 -21
12 -24 -18 -29 -23 -43 -15 -38 12 8 11 -73 -1 -92 -6 -9 -5 -12 2 -7 9 5 9 0
3 -33 -1 -2 -8 2 -16 9 -12 10 -15 10 -15 -1 0 -9 -3 -10 -8 -4 -11 15 -32 17
-32 2 0 -8 -4 -7 -10 3 -9 13 -10 13 -10 0 0 -13 -1 -13 -10 0 -9 13 -10 13
-10 0 0 -13 -1 -13 -10 0 -5 8 -10 10 -10 4 0 -6 -7 -11 -15 -11 -8 0 -15 5
-15 10 0 5 -7 4 -15 -3 -12 -10 -15 -10 -15 1 0 11 -2 11 -10 -1 -5 -8 -10
-10 -10 -4 0 6 -7 11 -15 11 -8 0 -15 -5 -15 -10 0 -5 -6 -4 -14 2 -11 9 -16
9 -21 0 -6 -8 -10 -7 -16 2 -8 12 -11 11 -19 -1 -9 -13 -10 -13 -10 0 0 13 -1
13 -10 0 -9 -13 -10 -13 -10 0 0 13 -1 13 -10 0 -9 -13 -10 -13 -10 0 0 12 -2
12 -9 2 -4 -8 -12 -14 -16 -14 -4 0 -12 6 -16 14 -7 11 -9 11 -9 -1 0 -10 -3
-11 -14 -2 -10 9 -16 9 -21 1 -4 -6 -13 -9 -21 -6 -8 3 -14 0 -14 -7 0 -8 -4
-6 -10 3 -5 8 -10 10 -10 4 0 -7 -7 -15 -16 -18 -8 -3 -12 -2 -9 4 3 6 -1 7
-9 4 -9 -3 -16 -10 -16 -15 0 -5 -3 -8 -7 -8 -26 4 -43 -2 -37 -13 5 -8 1 -8
-12 2 -10 8 -16 10 -12 6 4 -5 -17 -24 -47 -43 -30 -19 -55 -38 -55 -43 0 -5
-13 -17 -30 -26 -21 -13 -26 -20 -17 -26 8 -5 7 -8 -5 -8 -9 0 -20 -5 -24 -12
-5 -7 -3 -8 6 -3 9 6 11 4 6 -4 -5 -7 -14 -10 -22 -7 -8 3 -11 0 -8 -9 3 -8
-2 -22 -11 -31 -9 -9 -13 -24 -10 -32 3 -9 3 -13 -1 -10 -9 10 -32 -15 -27
-28 2 -7 -1 -15 -7 -19 -8 -5 -7 -11 2 -23 10 -12 10 -14 1 -8 -13 7 -18 -14
-15 -56 1 -10 -4 -18 -11 -18 -8 0 -7 -4 3 -10 8 -5 10 -10 4 -10 -7 0 -11 -8
-10 -17 1 -20 56 -35 68 -18 5 6 8 6 8 -2 0 -9 7 -10 24 -3 13 5 26 6 29 3 8
-7 174 -6 187 2 5 3 10 1 10 -5 0 -7 6 -8 19 0 12 6 22 6 25 1 3 -5 21 -5 40
-1 19 4 37 5 40 3 7 -7 174 -6 186 2 5 3 10 1 10 -5 0 -7 6 -8 19 -1 10 6 21
8 24 5 3 -3 51 -6 108 -7 l103 -2 1 -43 c1 -24 -2 -45 -7 -48 -5 -3 -5 -11 -1
-17 11 -17 11 -57 1 -63 -4 -3 -5 -11 -1 -17 11 -17 11 -57 1 -63 -4 -3 -5
-11 -1 -17 11 -17 11 -57 1 -63 -4 -3 -5 -11 -1 -17 13 -21 14 -49 1 -41 -7 5
-8 3 -2 -7 10 -16 14 -120 4 -114 -4 2 -7 -2 -7 -10 0 -8 4 -12 7 -10 4 3 8
-6 8 -20 0 -16 -5 -22 -12 -18 -8 5 -7 2 1 -8 14 -17 14 -28 1 -53 -6 -10 -6
-16 -1 -13 11 7 11 -72 0 -90 -4 -6 -3 -14 1 -17 10 -6 10 -46 -1 -62 -3 -6
-3 -14 0 -18 13 -12 14 -48 1 -40 -7 5 -8 3 -2 -7 10 -16 14 -120 4 -114 -4 2
-7 -2 -7 -10 0 -8 4 -12 7 -10 4 3 8 -6 8 -20 0 -14 -5 -22 -11 -18 -6 4 -7 1
-1 -8 12 -19 12 -30 1 -53 -5 -11 -5 -16 0 -13 11 7 11 -72 0 -90 -4 -6 -3
-14 1 -17 10 -6 10 -46 -1 -62 -3 -6 -3 -14 0 -18 12 -12 12 -36 0 -36 -8 0
-7 -4 2 -9 7 -5 10 -14 7 -20 -5 -8 113 -11 434 -11 315 0 439 3 434 11 -3 6
-15 9 -25 6 -12 -3 -19 0 -19 10 0 8 -4 12 -9 9 -9 -6 -34 39 -35 64 -1 8 -6
14 -11 13 -6 -1 -11 7 -11 18 0 10 4 19 9 19 4 0 5 5 2 10 -4 6 -1 18 7 27 11
14 11 15 0 9 -10 -6 -13 -3 -11 10 2 11 0 25 -4 32 -5 6 -4 12 2 12 6 0 7 7 4
17 -5 12 -3 14 8 9 8 -4 5 0 -5 8 -13 10 -15 16 -7 16 11 0 11 3 1 15 -8 10
-9 15 -2 15 7 0 9 7 5 17 -5 12 -3 14 8 9 8 -4 5 0 -5 8 -13 10 -15 16 -7 16
11 0 11 3 1 15 -8 10 -9 15 -2 15 7 0 9 7 5 17 -5 12 -3 14 8 9 8 -4 5 0 -5 8
-13 10 -15 16 -7 16 11 0 11 3 1 15 -8 10 -9 15 -2 15 7 0 9 7 5 17 -5 12 -3
14 8 9 8 -4 5 0 -5 8 -11 9 -16 16 -10 16 11 0 11 51 -1 70 -5 9 -4 11 4 6 9
-6 10 0 5 20 -6 21 -4 25 7 19 8 -5 5 1 -5 13 -14 17 -16 22 -5 22 11 0 11 2
-1 10 -11 7 -11 10 -2 10 7 0 10 5 7 10 -4 6 -1 18 7 27 9 12 9 15 0 9 -9 -5
-11 3 -9 34 2 23 -1 44 -6 47 -5 3 -2 10 7 15 14 8 15 13 5 24 -6 8 -9 17 -6
21 4 3 2 12 -4 20 -7 8 -8 13 -1 13 11 0 9 50 -2 68 -4 7 -1 12 6 12 9 0 9 3
-2 10 -11 7 -11 10 -2 10 7 0 10 5 7 10 -4 6 -1 18 7 27 8 11 9 14 1 10 -9 -6
-12 3 -10 30 1 21 -2 44 -6 51 -5 6 -4 12 1 12 11 0 8 62 -3 80 -5 9 -4 11 4
6 9 -6 10 0 5 20 -6 21 -4 25 7 19 8 -5 5 1 -5 13 -14 17 -16 22 -5 22 11 0
11 2 -1 10 -11 7 -11 10 -2 10 7 0 10 5 7 10 -4 6 -1 18 7 27 9 12 9 15 0 9
-9 -5 -11 3 -9 34 2 23 -1 44 -6 47 -5 3 -2 10 7 15 14 8 15 13 5 24 -6 8 -9
17 -6 21 4 3 2 12 -4 20 -7 8 -8 13 -1 13 11 0 9 50 -2 68 -4 7 -1 12 6 12 9
0 9 3 -2 10 -11 7 -11 10 -2 10 7 0 10 5 7 10 -4 6 -1 18 7 27 8 11 9 14 1 10
-9 -6 -12 3 -10 30 1 21 -2 44 -6 51 -5 6 -4 12 1 12 11 0 8 62 -3 80 -5 9 -4
11 4 6 9 -6 10 0 5 20 -6 21 -4 25 7 19 8 -5 5 1 -5 13 -14 17 -16 22 -5 22
11 0 11 2 -1 10 -11 7 -11 10 -2 10 7 0 10 5 7 10 -4 6 -1 18 7 27 9 12 9 15
0 9 -9 -5 -11 3 -9 34 2 23 -1 44 -6 47 -5 3 -2 10 7 15 14 8 15 13 5 24 -6 8
-9 17 -6 21 4 3 2 12 -4 20 -7 8 -8 13 -1 13 11 0 9 50 -2 68 -4 7 -1 12 6 12
9 0 9 3 -2 10 -11 7 -11 10 -2 10 7 0 10 5 7 10 -4 6 -1 18 7 27 8 11 9 14 1
10 -9 -6 -12 3 -10 30 1 21 -2 44 -6 51 -5 6 -4 12 1 12 11 0 8 62 -3 80 -5 9
-4 11 4 6 9 -6 10 0 5 20 -6 21 -4 25 7 19 8 -5 5 1 -5 13 -14 17 -16 22 -5
22 11 0 11 2 -1 10 -11 7 -11 10 -2 10 7 0 10 5 7 10 -4 6 -1 18 7 27 9 12 9
15 0 9 -9 -5 -11 3 -9 34 2 23 -1 44 -6 47 -5 3 -2 10 7 15 14 8 15 13 5 24
-6 8 -9 17 -6 21 4 3 2 12 -4 20 -7 8 -8 13 -1 13 11 0 9 50 -2 68 -4 7 -3 12
2 12 5 0 8 12 6 26 -1 15 4 37 12 49 8 12 12 25 9 28 -3 4 -2 5 2 2 10 -8 33
16 26 28 -4 6 -1 7 7 2 7 -4 16 -2 21 6 7 12 9 12 9 0 0 -11 4 -9 15 5 10 13
14 14 15 5 0 -11 3 -11 15 -1 12 10 15 10 15 0 0 -10 3 -10 15 0 12 10 15 10
15 0 0 -10 4 -10 16 1 13 10 17 10 24 0 8 -14 30 -7 30 10 0 5 -198 9 -509 9
-503 0 -510 0 -506 -20z"/>
<path d="M3000 10 c-23 -7 -23 -8 -3 -9 12 -1 25 4 28 9 3 6 5 10 3 9 -2 -1
-14 -5 -28 -9z"/>
<path d="M3048 3 c6 -2 18 -2 25 0 6 3 1 5 -13 5 -14 0 -19 -2 -12 -5z"/>
</g>
</svg>
